<mxfile host="65bd71144e">
    <diagram id="OOxfLugRKbv6Xc30NF8m" name="Page-1">
        <mxGraphModel dx="4190" dy="4077" grid="1" gridSize="10" guides="1" tooltips="1" connect="1" arrows="1" fold="1" page="1" pageScale="1" pageWidth="850" pageHeight="1100" math="0" shadow="0">
            <root>
                <mxCell id="0"/>
                <mxCell id="1" parent="0"/>
                <mxCell id="7" value="" style="edgeStyle=none;html=1;" edge="1" parent="1" source="3" target="6">
                    <mxGeometry relative="1" as="geometry"/>
                </mxCell>
                <mxCell id="3" value="Adlfyn Website" style="whiteSpace=wrap;html=1;" vertex="1" parent="1">
                    <mxGeometry x="350" y="-1530" width="120" height="60" as="geometry"/>
                </mxCell>
                <mxCell id="101" value="" style="edgeStyle=none;html=1;" edge="1" parent="1" source="6" target="10">
                    <mxGeometry relative="1" as="geometry"/>
                </mxCell>
                <mxCell id="6" value="CTA -&amp;gt; Navigate towards Adlfyn web application" style="whiteSpace=wrap;html=1;strokeWidth=3;strokeColor=#6c8ebf;fillColor=#dae8fc;gradientColor=#7ea6e0;fontStyle=1" vertex="1" parent="1">
                    <mxGeometry x="350" y="-1420" width="120" height="60" as="geometry"/>
                </mxCell>
                <mxCell id="102" style="edgeStyle=none;html=1;exitX=1;exitY=0.5;exitDx=0;exitDy=0;entryX=0;entryY=0.5;entryDx=0;entryDy=0;" edge="1" parent="1" source="10" target="49">
                    <mxGeometry relative="1" as="geometry"/>
                </mxCell>
                <mxCell id="103" value="Login" style="edgeLabel;html=1;align=center;verticalAlign=middle;resizable=0;points=[];fontStyle=1" vertex="1" connectable="0" parent="102">
                    <mxGeometry x="-0.1003" relative="1" as="geometry">
                        <mxPoint as="offset"/>
                    </mxGeometry>
                </mxCell>
                <mxCell id="118" style="edgeStyle=none;html=1;exitX=0.5;exitY=1;exitDx=0;exitDy=0;entryX=0;entryY=0.5;entryDx=0;entryDy=0;" edge="1" parent="1" source="10" target="14">
                    <mxGeometry relative="1" as="geometry"/>
                </mxCell>
                <mxCell id="169" value="&lt;span style=&quot;color: rgb(0, 0, 0);&quot;&gt;Use case&lt;/span&gt;" style="edgeLabel;html=1;align=center;verticalAlign=middle;resizable=0;points=[];" vertex="1" connectable="0" parent="118">
                    <mxGeometry x="-0.2553" y="-4" relative="1" as="geometry">
                        <mxPoint as="offset"/>
                    </mxGeometry>
                </mxCell>
                <mxCell id="167" style="edgeStyle=none;html=1;exitX=0.5;exitY=0;exitDx=0;exitDy=0;entryX=0;entryY=0.5;entryDx=0;entryDy=0;" edge="1" parent="1" source="10" target="12">
                    <mxGeometry relative="1" as="geometry"/>
                </mxCell>
                <mxCell id="168" value="Use case" style="edgeLabel;html=1;align=center;verticalAlign=middle;resizable=0;points=[];" vertex="1" connectable="0" parent="167">
                    <mxGeometry x="0.0477" y="4" relative="1" as="geometry">
                        <mxPoint x="1" as="offset"/>
                    </mxGeometry>
                </mxCell>
                <mxCell id="10" value="Login/Registration" style="whiteSpace=wrap;html=1;fillColor=#d5e8d4;gradientColor=#97d077;strokeColor=#82b366;" vertex="1" parent="1">
                    <mxGeometry x="345" y="-1270" width="130" height="60" as="geometry"/>
                </mxCell>
                <mxCell id="44" value="" style="edgeStyle=none;html=1;" edge="1" parent="1" source="12" target="43">
                    <mxGeometry relative="1" as="geometry"/>
                </mxCell>
                <mxCell id="12" value="Personal branding" style="rounded=1;whiteSpace=wrap;html=1;" vertex="1" parent="1">
                    <mxGeometry x="490" y="-1360" width="120" height="60" as="geometry"/>
                </mxCell>
                <mxCell id="173" value="" style="edgeStyle=none;html=1;" edge="1" parent="1" source="14" target="170">
                    <mxGeometry relative="1" as="geometry"/>
                </mxCell>
                <mxCell id="14" value="Business purpose" style="rounded=1;whiteSpace=wrap;html=1;" vertex="1" parent="1">
                    <mxGeometry x="490" y="-1160" width="120" height="60" as="geometry"/>
                </mxCell>
                <mxCell id="20" value="User profile Dashboard" style="whiteSpace=wrap;html=1;" vertex="1" parent="1">
                    <mxGeometry x="350" y="-960" width="120" height="60" as="geometry"/>
                </mxCell>
                <mxCell id="136" value="" style="edgeStyle=none;html=1;" edge="1" parent="1" source="22" target="93">
                    <mxGeometry relative="1" as="geometry"/>
                </mxCell>
                <mxCell id="139" value="" style="edgeStyle=none;html=1;" edge="1" parent="1" source="22" target="138">
                    <mxGeometry relative="1" as="geometry"/>
                </mxCell>
                <mxCell id="22" value="Poster/creative creation" style="whiteSpace=wrap;html=1;" vertex="1" parent="1">
                    <mxGeometry x="350" y="-695" width="120" height="60" as="geometry"/>
                </mxCell>
                <mxCell id="143" value="" style="edgeStyle=none;html=1;" edge="1" parent="1" source="27" target="99">
                    <mxGeometry relative="1" as="geometry"/>
                </mxCell>
                <mxCell id="144" style="edgeStyle=none;html=1;exitX=0.5;exitY=1;exitDx=0;exitDy=0;" edge="1" parent="1" source="27" target="31">
                    <mxGeometry relative="1" as="geometry"/>
                </mxCell>
                <mxCell id="27" value="Social media management and automation" style="whiteSpace=wrap;html=1;" vertex="1" parent="1">
                    <mxGeometry x="350" y="-360" width="120" height="60" as="geometry"/>
                </mxCell>
                <mxCell id="149" style="edgeStyle=none;html=1;exitX=1;exitY=0.5;exitDx=0;exitDy=0;entryX=0;entryY=0.5;entryDx=0;entryDy=0;" edge="1" parent="1" source="31" target="145">
                    <mxGeometry relative="1" as="geometry"/>
                </mxCell>
                <mxCell id="154" style="edgeStyle=none;html=1;exitX=0;exitY=0.5;exitDx=0;exitDy=0;entryX=1;entryY=0.5;entryDx=0;entryDy=0;dashed=1;dashPattern=1 2;strokeWidth=2;" edge="1" parent="1" source="31" target="153">
                    <mxGeometry relative="1" as="geometry"/>
                </mxCell>
                <mxCell id="158" style="edgeStyle=none;html=1;exitX=0;exitY=0.5;exitDx=0;exitDy=0;entryX=1;entryY=0.5;entryDx=0;entryDy=0;dashed=1;dashPattern=1 2;strokeWidth=2;" edge="1" parent="1" source="31" target="155">
                    <mxGeometry relative="1" as="geometry"/>
                </mxCell>
                <mxCell id="193" value="" style="edgeStyle=none;html=1;" edge="1" parent="1" source="31" target="35">
                    <mxGeometry relative="1" as="geometry"/>
                </mxCell>
                <mxCell id="31" value="Meta Ad manager&amp;nbsp;&lt;div&gt;/ perfomance marketing&lt;/div&gt;" style="whiteSpace=wrap;html=1;" vertex="1" parent="1">
                    <mxGeometry x="350" y="-135" width="120" height="60" as="geometry"/>
                </mxCell>
                <mxCell id="195" value="" style="edgeStyle=none;html=1;" edge="1" parent="1" source="35" target="39">
                    <mxGeometry relative="1" as="geometry"/>
                </mxCell>
                <mxCell id="35" value="Seo, Smo" style="whiteSpace=wrap;html=1;" vertex="1" parent="1">
                    <mxGeometry x="350" y="45" width="120" height="60" as="geometry"/>
                </mxCell>
                <mxCell id="39" value="Lead creation&lt;div&gt;(Inboxes, CTR etc..)&lt;/div&gt;" style="shape=step;perimeter=stepPerimeter;whiteSpace=wrap;html=1;fixedSize=1;fillColor=#f8cecc;strokeColor=#b85450;" vertex="1" parent="1">
                    <mxGeometry x="560" y="35" width="150" height="80" as="geometry"/>
                </mxCell>
                <mxCell id="163" value="" style="edgeStyle=none;html=1;" edge="1" parent="1" source="43" target="161">
                    <mxGeometry relative="1" as="geometry"/>
                </mxCell>
                <mxCell id="43" value="Respective onboarding questions" style="rounded=1;whiteSpace=wrap;html=1;" vertex="1" parent="1">
                    <mxGeometry x="645" y="-1360" width="120" height="60" as="geometry"/>
                </mxCell>
                <mxCell id="66" style="edgeStyle=none;html=1;exitX=0.5;exitY=1;exitDx=0;exitDy=0;entryX=1;entryY=0.5;entryDx=0;entryDy=0;fillColor=#e51400;strokeColor=#B20000;strokeWidth=3;" edge="1" parent="1" source="49" target="54">
                    <mxGeometry relative="1" as="geometry">
                        <Array as="points">
                            <mxPoint x="1170" y="-780"/>
                        </Array>
                    </mxGeometry>
                </mxCell>
                <mxCell id="49" value="Login/Registration successfull" style="whiteSpace=wrap;html=1;" vertex="1" parent="1">
                    <mxGeometry x="1110" y="-1270" width="120" height="60" as="geometry"/>
                </mxCell>
                <mxCell id="68" value="" style="edgeStyle=none;html=1;fillColor=#e51400;strokeColor=#B20000;strokeWidth=3;" edge="1" parent="1" source="54" target="67">
                    <mxGeometry relative="1" as="geometry"/>
                </mxCell>
                <mxCell id="120" style="edgeStyle=none;html=1;exitX=1;exitY=0;exitDx=0;exitDy=0;entryX=1;entryY=0;entryDx=0;entryDy=0;" edge="1" parent="1" source="99" target="99">
                    <mxGeometry relative="1" as="geometry"/>
                </mxCell>
                <mxCell id="132" value="" style="edgeStyle=none;html=1;" edge="1" parent="1" source="54" target="20">
                    <mxGeometry relative="1" as="geometry"/>
                </mxCell>
                <mxCell id="135" value="" style="edgeStyle=none;html=1;" edge="1" parent="1" source="54" target="22">
                    <mxGeometry relative="1" as="geometry"/>
                </mxCell>
                <mxCell id="54" value="Ai Chatbot -&amp;gt; Profile Dashboard" style="whiteSpace=wrap;html=1;fontStyle=1" vertex="1" parent="1">
                    <mxGeometry x="350" y="-810" width="120" height="60" as="geometry"/>
                </mxCell>
                <mxCell id="159" value="" style="edgeStyle=none;html=1;" edge="1" parent="1" source="67" target="90">
                    <mxGeometry relative="1" as="geometry"/>
                </mxCell>
                <mxCell id="67" value="&lt;div style=&quot;text-align: center;&quot;&gt;&lt;b&gt;Chatbot feature and capabilites&lt;/b&gt;&lt;/div&gt;&lt;ul&gt;&lt;li&gt;Profile Data&lt;/li&gt;&lt;li&gt;Understand user prompt&lt;/li&gt;&lt;li&gt;Lead gen, ad, post etc -&amp;gt; Calls respective agent&lt;/li&gt;&lt;li&gt;Social media engagement/inbox from social media platofrms&lt;/li&gt;&lt;li&gt;Collects feedbacks&lt;/li&gt;&lt;li&gt;Logs insights to dashboard&amp;nbsp;&lt;/li&gt;&lt;li&gt;&lt;span style=&quot;text-align: center;&quot;&gt;Scheduled and posted content&lt;/span&gt;&lt;div&gt;&lt;ol&gt;&lt;/ol&gt;&lt;/div&gt;&lt;/li&gt;&lt;li&gt;Ad campaign performance metric&lt;/li&gt;&lt;li&gt;Personal brand score/tracker&lt;/li&gt;&lt;/ul&gt;" style="shape=process;whiteSpace=wrap;html=1;backgroundOutline=1;align=left;fillColor=#fff2cc;strokeColor=#d6b656;glass=1;" vertex="1" parent="1">
                    <mxGeometry x="-300" y="-940" width="310" height="320" as="geometry"/>
                </mxCell>
                <mxCell id="90" value="&lt;div style=&quot;text-align: center;&quot;&gt;&lt;b style=&quot;background-color: transparent;&quot;&gt;&lt;font style=&quot;font-size: 10px;&quot;&gt;Additional features&lt;/font&gt;&lt;/b&gt;&lt;/div&gt;&lt;div&gt;&lt;ol&gt;&lt;li&gt;&lt;b&gt;&lt;font style=&quot;font-size: 10px;&quot;&gt;Smart suggestion&amp;nbsp;&lt;/font&gt;&lt;/b&gt;&lt;/li&gt;&lt;li&gt;&lt;b&gt;&lt;font style=&quot;font-size: 10px;&quot;&gt;Campaign performance benchmark&lt;/font&gt;&lt;/b&gt;&lt;/li&gt;&lt;li&gt;&lt;b&gt;&lt;font style=&quot;font-size: 10px;&quot;&gt;Ai Activity timeline&lt;/font&gt;&lt;/b&gt;&lt;/li&gt;&lt;/ol&gt;&lt;/div&gt;" style="rounded=0;whiteSpace=wrap;html=1;align=left;fillColor=#f8cecc;strokeColor=#b85450;glass=1;" vertex="1" parent="1">
                    <mxGeometry x="-262.5" y="-1105" width="235" height="110" as="geometry"/>
                </mxCell>
                <mxCell id="137" value="" style="edgeStyle=none;html=1;" edge="1" parent="1" source="93" target="124">
                    <mxGeometry relative="1" as="geometry"/>
                </mxCell>
                <mxCell id="93" value="Adflyn AI studio" style="whiteSpace=wrap;html=1;fillColor=#dae8fc;strokeColor=#6c8ebf;strokeWidth=3;gradientColor=#7ea6e0;fontStyle=1" vertex="1" parent="1">
                    <mxGeometry x="560" y="-695" width="120" height="60" as="geometry"/>
                </mxCell>
                <mxCell id="97" value="&lt;b&gt;Automation&lt;/b&gt;&lt;div&gt;&lt;ol&gt;&lt;li&gt;Should generate Business insights to the users.&lt;/li&gt;&lt;li&gt;Schedule 7 posts for the week&lt;/li&gt;&lt;li&gt;launch Meta Ads with specific budget&lt;/li&gt;&lt;li&gt;Collect leads in google sheet&lt;/li&gt;&lt;li&gt;............&lt;b&gt;Basically do all the things.. An Ai assistance that runs the business&lt;/b&gt;&lt;/li&gt;&lt;/ol&gt;&lt;/div&gt;" style="whiteSpace=wrap;html=1;fillColor=#fff2cc;strokeColor=#d6b656;strokeWidth=3;align=left;rounded=0;glass=1;" vertex="1" parent="1">
                    <mxGeometry x="805" y="-425" width="310" height="190" as="geometry"/>
                </mxCell>
                <mxCell id="141" value="" style="edgeStyle=none;html=1;" edge="1" parent="1" source="99" target="97">
                    <mxGeometry relative="1" as="geometry"/>
                </mxCell>
                <mxCell id="147" value="" style="edgeStyle=none;html=1;" edge="1" parent="1" source="99" target="146">
                    <mxGeometry relative="1" as="geometry"/>
                </mxCell>
                <mxCell id="99" value="Adflyn AutoPilot" style="whiteSpace=wrap;html=1;fillColor=#dae8fc;strokeColor=#6c8ebf;strokeWidth=3;gradientColor=#7ea6e0;fontStyle=1" vertex="1" parent="1">
                    <mxGeometry x="560" y="-360" width="120" height="60" as="geometry"/>
                </mxCell>
                <mxCell id="106" value="Referance Lexi Lexi" style="ellipse;shape=cloud;whiteSpace=wrap;html=1;fillColor=#fff2cc;gradientColor=#ffd966;strokeColor=#d6b656;fontStyle=1" vertex="1" parent="1">
                    <mxGeometry x="930" y="-1490" width="170" height="90" as="geometry"/>
                </mxCell>
                <mxCell id="116" value="" style="edgeStyle=none;html=1;" edge="1" parent="1" source="107" target="115">
                    <mxGeometry relative="1" as="geometry"/>
                </mxCell>
                <mxCell id="107" value="Analysing user Business based on the data user has provided" style="whiteSpace=wrap;html=1;align=center;fillColor=#b0e3e6;strokeColor=#0e8088;" vertex="1" parent="1">
                    <mxGeometry x="805" y="-1160" width="120" height="60" as="geometry"/>
                </mxCell>
                <mxCell id="166" style="edgeStyle=none;html=1;exitX=1;exitY=0.5;exitDx=0;exitDy=0;" edge="1" parent="1" source="115">
                    <mxGeometry relative="1" as="geometry">
                        <mxPoint x="1170" y="-1210" as="targetPoint"/>
                    </mxGeometry>
                </mxCell>
                <mxCell id="115" value="User should verify the data and approve&amp;nbsp;" style="rounded=1;whiteSpace=wrap;html=1;fillColor=#d5e8d4;strokeColor=#82b366;" vertex="1" parent="1">
                    <mxGeometry x="975" y="-1160" width="120" height="60" as="geometry"/>
                </mxCell>
                <mxCell id="124" value="&lt;b&gt;Photo/Creative and video generator&lt;/b&gt;&lt;br&gt;&lt;div&gt;&lt;ol&gt;&lt;li&gt;Generate image using&amp;nbsp; Prompt&lt;/li&gt;&lt;li&gt;add a image of the product and AI enhancement&lt;/li&gt;&lt;li&gt;Custom edit option.&lt;/li&gt;&lt;/ol&gt;&lt;/div&gt;" style="whiteSpace=wrap;html=1;fillColor=#fff2cc;strokeColor=#d6b656;strokeWidth=3;align=left;rounded=0;glass=1;" vertex="1" parent="1">
                    <mxGeometry x="800" y="-730" width="240" height="130" as="geometry"/>
                </mxCell>
                <mxCell id="133" value="To view profile setting, billing and integration&amp;nbsp;" style="ellipse;shape=cloud;whiteSpace=wrap;html=1;fillColor=#ffe6cc;strokeColor=#d79b00;" vertex="1" parent="1">
                    <mxGeometry x="350" y="-1090" width="110" height="80" as="geometry"/>
                </mxCell>
                <mxCell id="142" value="" style="edgeStyle=none;html=1;" edge="1" parent="1" source="138" target="27">
                    <mxGeometry relative="1" as="geometry"/>
                </mxCell>
                <mxCell id="138" value="Blogs and copyright Generation Using &lt;b&gt;RSS&lt;/b&gt;" style="whiteSpace=wrap;html=1;" vertex="1" parent="1">
                    <mxGeometry x="350" y="-560" width="120" height="60" as="geometry"/>
                </mxCell>
                <mxCell id="176" value="" style="edgeStyle=none;html=1;" edge="1" parent="1" source="145" target="175">
                    <mxGeometry relative="1" as="geometry"/>
                </mxCell>
                <mxCell id="145" value="&lt;ol&gt;&lt;li&gt;&lt;b&gt;&lt;b style=&quot;color: rgb(63, 63, 63);&quot;&gt;Ad creation&lt;/b&gt;&lt;/b&gt;&lt;/li&gt;&lt;li&gt;&lt;b&gt;&lt;b style=&quot;color: rgb(63, 63, 63);&quot;&gt;Ad Preset -&amp;gt; Audience engagement&lt;/b&gt;&lt;/b&gt;&lt;/li&gt;&lt;li&gt;&lt;b&gt;Ad Automation&lt;/b&gt;&lt;/li&gt;&lt;li&gt;&lt;b&gt;Boost post&lt;br&gt;&lt;/b&gt;&lt;/li&gt;&lt;li&gt;&lt;b&gt;Launch ad campaign&lt;/b&gt;&lt;/li&gt;&lt;/ol&gt;" style="whiteSpace=wrap;html=1;fillColor=#fff2cc;strokeColor=#d6b656;strokeWidth=3;align=left;rounded=0;glass=1;" vertex="1" parent="1">
                    <mxGeometry x="550" y="-182.5" width="240" height="155" as="geometry"/>
                </mxCell>
                <mxCell id="146" value="Bulk workflow/Auotmation" style="ellipse;shape=cloud;whiteSpace=wrap;html=1;fillColor=#e1d5e7;strokeColor=#9673a6;" vertex="1" parent="1">
                    <mxGeometry x="560" y="-500" width="120" height="80" as="geometry"/>
                </mxCell>
                <mxCell id="148" style="edgeStyle=none;html=1;exitX=0.5;exitY=0;exitDx=0;exitDy=0;entryX=0.55;entryY=0.95;entryDx=0;entryDy=0;entryPerimeter=0;dashed=1;dashPattern=1 4;strokeWidth=3;" edge="1" parent="1" source="20" target="133">
                    <mxGeometry relative="1" as="geometry"/>
                </mxCell>
                <mxCell id="192" value="" style="edgeStyle=none;html=1;" edge="1" parent="1" source="153" target="191">
                    <mxGeometry relative="1" as="geometry"/>
                </mxCell>
                <mxCell id="153" value="Ad Campaign Dashboard (If required)" style="rounded=1;whiteSpace=wrap;html=1;fillColor=#f8cecc;strokeColor=#b85450;fillStyle=auto;" vertex="1" parent="1">
                    <mxGeometry x="130" y="-135" width="120" height="60" as="geometry"/>
                </mxCell>
                <mxCell id="155" value="&lt;b&gt;Ad library -&amp;gt; user should be able to see all of his creative for performance marketing&lt;/b&gt;&lt;span style=&quot;background-color: transparent;&quot;&gt;&amp;nbsp;&lt;/span&gt;" style="whiteSpace=wrap;html=1;strokeWidth=1;align=left;rounded=1;glass=0;fillColor=#f8cecc;strokeColor=#b85450;" vertex="1" parent="1">
                    <mxGeometry x="60" y="-235" width="200" height="60" as="geometry"/>
                </mxCell>
                <mxCell id="164" value="" style="edgeStyle=none;html=1;" edge="1" parent="1" source="161" target="162">
                    <mxGeometry relative="1" as="geometry"/>
                </mxCell>
                <mxCell id="161" value="Analysing user Business based on the data user has provided" style="whiteSpace=wrap;html=1;align=center;fillColor=#b0e3e6;strokeColor=#0e8088;" vertex="1" parent="1">
                    <mxGeometry x="805" y="-1360" width="120" height="60" as="geometry"/>
                </mxCell>
                <mxCell id="165" style="edgeStyle=none;html=1;exitX=1;exitY=0.5;exitDx=0;exitDy=0;entryX=0.5;entryY=0;entryDx=0;entryDy=0;" edge="1" parent="1" source="162" target="49">
                    <mxGeometry relative="1" as="geometry"/>
                </mxCell>
                <mxCell id="162" value="User should verify the data and approve&amp;nbsp;" style="rounded=1;whiteSpace=wrap;html=1;fillColor=#d5e8d4;strokeColor=#82b366;" vertex="1" parent="1">
                    <mxGeometry x="975" y="-1360" width="120" height="60" as="geometry"/>
                </mxCell>
                <mxCell id="174" value="" style="edgeStyle=none;html=1;" edge="1" parent="1" source="170" target="107">
                    <mxGeometry relative="1" as="geometry"/>
                </mxCell>
                <mxCell id="170" value="Respective onboarding questions" style="rounded=1;whiteSpace=wrap;html=1;" vertex="1" parent="1">
                    <mxGeometry x="645" y="-1160" width="120" height="60" as="geometry"/>
                </mxCell>
                <mxCell id="175" value="Publish on social media platforms&amp;nbsp;&lt;div&gt;(Linkedin, instagram, facebook)&lt;/div&gt;" style="whiteSpace=wrap;html=1;" vertex="1" parent="1">
                    <mxGeometry x="910" y="-145" width="120" height="80" as="geometry"/>
                </mxCell>
                <mxCell id="189" value="&lt;b&gt;&lt;font style=&quot;font-size: 20px;&quot;&gt;Business page insight&lt;/font&gt;&lt;/b&gt;&lt;div&gt;&lt;b&gt;&lt;font style=&quot;font-size: 20px;&quot;&gt;and&amp;nbsp;&lt;/font&gt;&lt;/b&gt;&lt;/div&gt;&lt;div&gt;&lt;b&gt;&lt;font style=&quot;font-size: 20px;&quot;&gt;Business website insight&lt;/font&gt;&lt;/b&gt;&lt;/div&gt;" style="shape=note;whiteSpace=wrap;html=1;backgroundOutline=1;fontColor=#000000;darkOpacity=0.05;fillColor=#FFF9B2;strokeColor=default;fillStyle=solid;direction=west;gradientDirection=north;gradientColor=#FFF2A1;shadow=1;size=20;pointerEvents=1;strokeWidth=2;dashed=1;dashPattern=1 4;" vertex="1" parent="1">
                    <mxGeometry x="-330" y="-1520" width="370" height="180" as="geometry"/>
                </mxCell>
                <mxCell id="191" value="&lt;ol&gt;&lt;li&gt;Leads&lt;/li&gt;&lt;li&gt;CTR, reach , impression&lt;/li&gt;&lt;li&gt;Conversion and tracking&lt;/li&gt;&lt;li&gt;Ai suggestion on insights.&lt;/li&gt;&lt;/ol&gt;" style="whiteSpace=wrap;html=1;fillColor=#fff2cc;strokeColor=#d6b656;strokeWidth=3;align=left;rounded=0;glass=1;fontStyle=1" vertex="1" parent="1">
                    <mxGeometry x="70" y="-27.5" width="240" height="155" as="geometry"/>
                </mxCell>
            </root>
        </mxGraphModel>
    </diagram>
</mxfile>